<?xml version="1.0" standalone="no"?>
<!DOCTYPE svg PUBLIC "-//W3C//DTD SVG 20010904//EN"
 "http://www.w3.org/TR/2001/REC-SVG-20010904/DTD/svg10.dtd">
<svg version="1.0" xmlns="http://www.w3.org/2000/svg"
 width="111.000000pt" height="106.000000pt" viewBox="0 0 111.000000 106.000000"
 preserveAspectRatio="xMidYMid meet">
<metadata>
Created by potrace 1.16, written by Peter Selinger 2001-2019
</metadata>
<g transform="translate(0.000000,106.000000) scale(0.100000,-0.100000)"
fill="#000000" stroke="none">
<path d="M0 858 l0 -203 33 1 c19 1 39 4 45 8 7 4 12 2 12 -3 0 -21 39 -11 67
17 15 15 26 28 25 30 -18 21 75 52 157 52 69 0 124 -24 173 -75 29 -30 45 -38
80 -41 104 -9 147 -10 142 -2 -8 12 64 10 88 -3 16 -9 23 -8 29 2 5 9 9 10 9
3 0 -8 38 -12 125 -13 l125 0 0 214 0 215 -555 0 -555 0 0 -202z"/>
<path d="M262 721 c-11 -6 -10 -10 4 -15 10 -4 20 -2 24 4 6 10 41 8 111 -6
53 -10 123 -110 98 -138 -5 -6 -9 -49 -9 -97 0 -97 -2 -100 -65 -109 -33 -4
-42 -2 -50 15 -21 41 -75 25 -75 -21 0 -19 -5 -24 -27 -24 -14 0 -24 -2 -22
-5 6 -6 586 -83 657 -87 l54 -3 24 75 c13 41 22 83 20 92 -2 10 0 21 5 24 16
10 10 53 -11 74 -27 27 -56 25 -85 -6 -21 -22 -23 -23 -18 -5 4 17 1 21 -21
21 -24 0 -26 -3 -26 -47 0 -53 -13 -86 -23 -59 -3 8 -2 18 3 21 17 11 11 61
-10 80 -12 10 -28 15 -41 12 -18 -5 -20 -2 -15 19 4 14 4 29 1 34 -10 17 -45
-9 -45 -33 0 -20 -4 -22 -46 -19 -33 3 -50 -1 -65 -13 -10 -10 -19 -13 -19 -7
0 6 -10 13 -22 15 -20 4 -19 4 5 6 22 1 27 6 27 26 0 21 -5 25 -27 25 -37 0
-47 8 -71 55 -24 47 -56 80 -95 94 -34 13 -126 14 -145 2z"/>
<path d="M1038 323 c0 -10 -2 -23 -2 -29 -1 -6 -13 -32 -26 -58 l-25 -48 -110
7 c-122 7 -139 9 -175 19 -17 5 -64 -6 -145 -33 -66 -21 -149 -41 -185 -45
l-65 -5 65 24 c99 38 160 67 160 77 0 4 -17 1 -37 -8 -21 -9 -72 -28 -113 -41
-67 -22 -87 -24 -185 -20 -64 3 -128 11 -152 20 l-43 16 0 -29 c0 -25 6 -30
47 -44 79 -26 206 -38 286 -27 123 17 132 19 120 14 -25 -9 -13 -23 14 -18 92
16 239 25 329 20 121 -7 190 -28 256 -80 23 -19 46 -35 50 -35 3 0 7 70 7 155
l2 154 -30 16 c-38 19 -41 19 -43 -2z"/>
</g>
</svg>
